<svg xmlns="http://www.w3.org/2000/svg" viewBox="0 0 64 64" id="plane"><g><path fill="#005d72" d="M57 34.33A3.76 3.76 0 0 1 53 38H38.34L27.81 52.59A1 1 0 0 1 27 53h-6a1 1 0 0 1-.84-.45 1 1 0 0 1-.08-.95L26 38h-5.55A12.46 12.46 0 0 1 8 25.55V21a1 1 0 0 1 1-1h6a1 1 0 0 1 .87.51l2.71 4.82h7.13L20.08 12.4a1 1 0 0 1 .08-1A1 1 0 0 1 21 11h6a1 1 0 0 1 .81.41l10.05 13.92H46c4.46 0 5.6 2.55 5.9 3.84 1.48.61 5.1 2.4 5.1 5.16ZM53 36c.33 0 2-.1 2-1.67C55 33 52.56 31.6 51.06 31H46a1 1 0 0 1 0-2h3.75c-.37-.74-1.33-1.67-3.75-1.67H18a1 1 0 0 1-.87-.51L14.42 22H10v3.55A10.46 10.46 0 0 0 20.45 36h6.41l1-2.4a1 1 0 0 1 .92-.6H40a1 1 0 0 1 .89.54 1 1 0 0 1-.08 1.05l-1 1.41Zm-16 .41L38 35h-8.52l-1 2.4L22.53 51h4L37 36.43v-.02Zm-1.61-11.08L26.49 13h-4l5.36 12.33Z"></path><path fill="#00aac6" d="M55 34.33C55 35.9 53.33 36 53 36H39.79l1-1.41a1 1 0 0 0 .08-1.05A1 1 0 0 0 40 33H28.82a1 1 0 0 0-.92.6l-1 2.4h-6.45A10.46 10.46 0 0 1 10 25.55V22h4.42l2.71 4.82a1 1 0 0 0 .87.51h28c2.42 0 3.38.93 3.75 1.67H46a1 1 0 0 0 0 2h5.06c1.5.6 3.94 2 3.94 3.33ZM43 30a1 1 0 0 0-1-1h-1a1 1 0 0 0 0 2h1a1 1 0 0 0 1-1Zm-5 0a1 1 0 0 0-1-1h-1a1 1 0 0 0 0 2h1a1 1 0 0 0 1-1Zm-5 0a1 1 0 0 0-1-1h-1a1 1 0 0 0 0 2h1a1 1 0 0 0 1-1Zm-5 0a1 1 0 0 0-1-1h-1a1 1 0 0 0 0 2h1a1 1 0 0 0 1-1Zm-5 0a1 1 0 0 0-1-1h-1a1 1 0 0 0 0 2h1a1 1 0 0 0 1-1Z"></path><path fill="#005d72" d="M42 29a1 1 0 0 1 0 2h-1a1 1 0 0 1 0-2Z"></path><path fill="#f9d178" d="m38 35-1 1.41L26.49 51h-4l5.9-13.59 1-2.4Z"></path><path fill="#005d72" d="M37 29a1 1 0 0 1 0 2h-1a1 1 0 0 1 0-2Z"></path><path fill="#f98080" d="m26.49 13 8.9 12.33h-7.5L22.53 13h3.96z"></path><path fill="#005d72" d="M32 29a1 1 0 0 1 0 2h-1a1 1 0 0 1 0-2zm-5 0a1 1 0 0 1 0 2h-1a1 1 0 0 1 0-2zm-5 0a1 1 0 0 1 0 2h-1a1 1 0 0 1 0-2z"></path></g></svg>